<svg width="8.000000" height="10.000000" viewBox="0 0 8 10" fill="none" xmlns="http://www.w3.org/2000/svg" xmlns:xlink="http://www.w3.org/1999/xlink">
	<defs/>
	<path id="location" d="M3.74 -0.5C1.68 -0.5 0 1.15 0 3.18C0 3.71 0.11 4.21 0.32 4.68C1.26 6.69 3.06 8.82 3.59 9.42C3.63 9.47 3.68 9.5 3.74 9.5C3.81 9.5 3.86 9.47 3.9 9.42C4.43 8.82 6.23 6.69 7.17 4.68C7.38 4.21 7.5 3.71 7.5 3.18C7.49 1.15 5.81 -0.5 3.74 -0.5ZM3.74 5.09C2.67 5.09 1.8 4.23 1.8 3.18C1.8 2.12 2.67 1.26 3.74 1.26C4.82 1.26 5.69 2.12 5.69 3.18C5.69 4.23 4.82 5.09 3.74 5.09Z" fill="#FFFFFF" fill-opacity="1.000000" fill-rule="evenodd"/>
</svg>
