<svg width="114.000000" height="30.000000" viewBox="0 0 114 30" fill="none" xmlns="http://www.w3.org/2000/svg" xmlns:xlink="http://www.w3.org/1999/xlink">
	<desc>
			Created with Pixso.
	</desc>
	<defs/>
	<path id="Vector (Stroke)" d="M16.82 1.79L16.23 1.79L16.23 18.86L18.92 19.67L18.92 11.86C20.02 9.46 20.86 6.93 20.11 4.1C19.9 3.32 19.46 2.73 18.86 2.34C18.27 1.95 17.55 1.79 16.82 1.79ZM12.17 2.04L12.17 7.58C11.76 7.51 11.52 7.36 11.37 7.2C11.14 6.97 11.01 6.61 10.98 6.07C10.94 5.54 11.01 4.92 11.09 4.23C11.1 4.16 11.1 4.1 11.11 4.03L11.11 4.03L11.11 4.03C11.19 3.42 11.27 2.77 11.27 2.17L10.08 2.17C10.08 2.7 10.01 3.28 9.94 3.9C9.93 3.96 9.92 4.03 9.91 4.09C9.83 4.77 9.75 5.49 9.79 6.15C9.84 6.81 10.01 7.49 10.51 8.01C10.91 8.42 11.46 8.67 12.17 8.76L12.16 17.8L13.35 17.8L13.35 8.78C14.05 8.7 14.61 8.46 15.01 8.04C15.51 7.52 15.68 6.82 15.72 6.15C15.77 5.48 15.69 4.74 15.6 4.06C15.6 3.99 15.59 3.92 15.58 3.84C15.5 3.23 15.43 2.66 15.43 2.17L14.25 2.17C14.25 2.74 14.33 3.37 14.4 3.98L14.4 3.98L14.4 3.99C14.41 4.06 14.42 4.13 14.43 4.2C14.51 4.89 14.58 5.53 14.54 6.08C14.51 6.63 14.38 7.01 14.15 7.24C14 7.4 13.76 7.54 13.35 7.61L13.35 2.04L12.17 2.04ZM17.41 18L17.41 3.01C17.72 3.07 17.99 3.17 18.21 3.31C18.55 3.53 18.82 3.87 18.96 4.4C19.62 6.86 18.89 9.11 17.79 11.5L17.74 11.61L17.74 18.1L17.41 18ZM10.62 9.66L10.41 10.81C10.04 10.74 9.66 10.73 9.26 10.75C9.49 11.01 9.71 11.3 9.89 11.6C10.12 11.98 10.31 12.44 10.3 12.91C10.3 13.42 10.05 13.89 9.54 14.2C9.3 14.34 9.21 14.47 9.17 14.57C9.09 14.75 9.09 14.96 9.08 15.16C9.08 15.19 9.08 15.21 9.08 15.24C9.07 15.72 9.06 16.42 8.53 17.13C8.03 17.8 7.33 17.78 6.65 17.77C6.08 17.76 5.54 17.75 5.15 18.13C4.38 18.9 4.25 20.1 3.23 20.69C2.7 21 2.05 20.91 1.49 20.73C2.18 22.97 3.93 24.82 6.14 25.76C6.05 25.14 5.97 24.43 5.95 23.76C5.92 22.44 6.28 20.27 7.94 20.02C8.36 19.96 8.78 20.07 9.19 20.17C9.68 20.3 10.16 20.43 10.65 20.28C11.19 20.11 11.53 19.8 11.96 19.41L11.97 19.41C12.92 18.54 14.61 17.67 15.63 18.94C16 19.39 16.2 19.94 16.4 20.47L16.4 20.48C16.59 20.97 16.77 21.49 17.09 21.92C17.31 21.5 17.5 21.08 17.62 20.67L18.76 20.99C17.32 25.94 11.59 28.67 6.67 27.19C3.26 26.17 0.56 23.29 0.07 19.76C-0.25 17.47 0.48 15.1 1.87 13.24C3.26 11.38 5.41 9.19 10.62 9.66ZM2.63 19.69C2.26 19.91 1.54 19.52 1.21 19.33C1.03 17.46 1.65 15.5 2.83 13.93C4.02 12.33 5.74 11.18 7.68 10.9C8.05 11.16 8.56 11.66 8.87 12.18C9.04 12.48 9.12 12.73 9.12 12.89C9.12 13.02 9.08 13.11 8.92 13.2C8.51 13.45 8.23 13.76 8.08 14.11C7.93 14.46 7.91 14.83 7.9 15.2C7.89 15.69 7.88 16.04 7.57 16.44C7.29 16.82 6.79 16.8 6.36 16.79C6.33 16.79 6.3 16.78 6.27 16.78L6.27 16.78C5.57 16.76 4.84 16.79 4.31 17.31C3.65 17.97 3.46 19.21 2.63 19.69ZM16.45 22.97C14.47 25.79 10.78 27.04 7.38 26.18C7.29 25.39 7.15 24.58 7.13 23.74C7.12 23.08 7.17 21.31 8.12 21.17C8.56 21.11 8.97 21.21 9.39 21.31C9.9 21.44 10.43 21.57 11.01 21.39C12.23 21.01 12.99 19.55 14.27 19.45C14.88 19.4 15.24 20.49 15.52 21.32C15.62 21.63 15.72 21.91 15.8 22.07C15.97 22.39 16.18 22.7 16.45 22.97Z" fill="#FFFFFF" fill-opacity="1.000000" fill-rule="evenodd"/>
	<path id="Vector" d="M30.6 17.39C29.62 17.39 28.77 17.22 28.05 16.88C27.33 16.54 26.77 16.06 26.38 15.46C25.99 14.84 25.8 14.13 25.8 13.33C25.8 12.53 25.94 11.79 26.23 11.12C26.52 10.44 26.93 9.86 27.46 9.36C27.99 8.86 28.61 8.48 29.34 8.2C30.08 7.93 30.89 7.79 31.78 7.79C32.67 7.79 33.45 7.94 34.13 8.24C34.81 8.54 35.32 8.97 35.66 9.54L33.71 11.04C33.49 10.69 33.2 10.42 32.85 10.23C32.5 10.05 32.09 9.96 31.61 9.96C31.14 9.96 30.72 10.04 30.34 10.2C29.96 10.35 29.64 10.58 29.37 10.87C29.1 11.16 28.89 11.5 28.74 11.9C28.6 12.28 28.52 12.71 28.52 13.16C28.52 13.58 28.61 13.94 28.8 14.26C28.99 14.56 29.26 14.81 29.6 14.98C29.96 15.15 30.37 15.23 30.86 15.23C31.28 15.23 31.69 15.15 32.08 14.98C32.48 14.81 32.85 14.54 33.19 14.16L34.78 15.68C34.25 16.3 33.63 16.75 32.93 17.01C32.23 17.27 31.45 17.39 30.6 17.39ZM41.01 17.39C40.02 17.39 39.18 17.22 38.47 16.88C37.76 16.53 37.22 16.05 36.83 15.44C36.45 14.84 36.26 14.13 36.26 13.33C36.26 12.52 36.41 11.79 36.7 11.12C36.99 10.44 37.4 9.86 37.92 9.36C38.45 8.86 39.08 8.48 39.81 8.2C40.54 7.93 41.35 7.79 42.22 7.79C43.2 7.79 44.05 7.97 44.76 8.32C45.47 8.66 46.01 9.14 46.4 9.75C46.78 10.35 46.97 11.06 46.97 11.86C46.97 12.66 46.82 13.41 46.53 14.08C46.24 14.75 45.83 15.34 45.3 15.84C44.78 16.33 44.14 16.71 43.41 16.99C42.68 17.26 41.88 17.39 41.01 17.39ZM53.21 17.39Q51.74 17.39 50.67 16.88C49.96 16.53 49.42 16.05 49.04 15.44C48.65 14.84 48.46 14.13 48.46 13.33C48.46 12.52 48.61 11.79 48.9 11.12C49.19 10.44 49.6 9.86 50.13 9.36C50.65 8.86 51.28 8.48 52.01 8.2C52.75 7.93 53.55 7.79 54.42 7.79C55.41 7.79 56.25 7.97 56.96 8.32C57.67 8.66 58.22 9.14 58.6 9.75C58.98 10.35 59.17 11.06 59.17 11.86C59.17 12.66 59.03 13.41 58.73 14.08C58.44 14.75 58.03 15.34 57.51 15.84C56.98 16.33 56.35 16.71 55.61 16.99C54.88 17.26 54.08 17.39 53.21 17.39ZM60.22 16.92L62.17 7.79L64.9 7.79L64.12 11.42L68.51 7.79L71.76 7.79L66.67 12.05L70.02 16.92L66.93 16.92L64.83 13.52L63.44 14.59L62.94 16.92L60.22 16.92ZM74.26 17.03L75.74 9.87L72.81 9.87L73.25 7.79L81.8 7.79L81.36 9.87L78.44 9.87L76.96 17.03L74.26 17.03ZM86.51 17.39C85.53 17.39 84.69 17.22 83.98 16.88C83.27 16.53 82.72 16.05 82.34 15.44C81.96 14.84 81.77 14.13 81.77 13.33C81.77 12.52 81.91 11.79 82.2 11.12C82.49 10.44 82.9 9.86 83.43 9.36C83.96 8.86 84.59 8.48 85.31 8.2C86.05 7.93 86.85 7.79 87.73 7.79C88.71 7.79 89.56 7.97 90.26 8.32C90.97 8.66 91.52 9.14 91.9 9.75C92.28 10.35 92.47 11.06 92.47 11.86C92.47 12.66 92.33 13.41 92.04 14.08C91.75 14.75 91.34 15.34 90.81 15.84C90.28 16.33 89.65 16.71 88.91 16.99C88.19 17.26 87.39 17.39 86.51 17.39ZM97.96 17.21C97.01 17.21 96.21 17.03 95.56 16.68C94.92 16.32 94.47 15.82 94.21 15.18C94.05 14.79 93.97 14.35 93.97 13.88C93.97 13.58 94 13.25 94.07 12.91L95.14 7.79L97.84 7.79L96.79 12.87C96.73 13.14 96.71 13.38 96.71 13.6C96.71 13.68 96.71 13.76 96.72 13.83C96.75 14.11 96.82 14.34 96.95 14.52C97.09 14.71 97.26 14.84 97.48 14.93C97.71 15.01 97.98 15.05 98.29 15.05C98.66 15.05 98.98 14.98 99.26 14.84C99.54 14.69 99.77 14.45 99.95 14.14C100.14 13.81 100.29 13.39 100.39 12.87L101.44 7.79L104.1 7.79L103.02 13.03C102.74 14.4 102.18 15.44 101.33 16.16C100.48 16.86 99.36 17.21 97.96 17.21ZM114 10.7C114 11.54 113.76 12.26 113.29 12.87C112.82 13.47 112.16 13.91 111.31 14.19L112.96 16.92L110.1 16.92L108.66 14.5L107.28 14.5L106.77 16.92L104.03 16.92L105.97 7.79L110.1 7.79C111.33 7.79 112.29 8.05 112.97 8.56C113.65 9.08 114 9.79 114 10.7ZM111.23 10.95C111.23 10.58 111.1 10.3 110.83 10.12C110.56 9.92 110.19 9.83 109.71 9.83L108.27 9.83L107.69 12.5L109.32 12.5C109.93 12.5 110.4 12.37 110.73 12.1C111.07 11.83 111.23 11.45 111.23 10.95ZM41.24 15.23C41.71 15.23 42.13 15.15 42.49 14.98C42.87 14.81 43.18 14.58 43.43 14.28C43.7 13.98 43.9 13.63 44.04 13.24Q44.05 13.2 44.07 13.15L44.07 13.15Q44.24 12.61 44.24 12.01C44.24 11.6 44.15 11.24 43.97 10.93C43.79 10.63 43.54 10.39 43.2 10.22C42.88 10.05 42.47 9.96 41.99 9.96C41.53 9.96 41.11 10.04 40.73 10.21C40.36 10.37 40.04 10.61 39.78 10.92C39.52 11.22 39.33 11.56 39.19 11.95C39.06 12.34 38.99 12.74 38.99 13.17C38.99 13.58 39.07 13.94 39.25 14.26C39.43 14.56 39.68 14.81 40.01 14.98C40.35 15.15 40.76 15.23 41.24 15.23ZM53.44 15.23C53.91 15.23 54.33 15.15 54.7 14.98C55.07 14.81 55.38 14.58 55.64 14.28C55.9 13.98 56.1 13.63 56.24 13.24Q56.25 13.2 56.27 13.15Q56.44 12.61 56.44 12.01C56.44 11.6 56.35 11.24 56.17 10.93C56 10.63 55.74 10.39 55.41 10.22C55.08 10.05 54.67 9.96 54.19 9.96C53.73 9.96 53.31 10.04 52.94 10.21C52.56 10.37 52.25 10.61 51.98 10.92C51.73 11.22 51.53 11.56 51.4 11.95C51.26 12.34 51.19 12.74 51.19 13.17C51.19 13.58 51.28 13.94 51.45 14.26C51.63 14.56 51.89 14.81 52.21 14.98C52.55 15.15 52.96 15.23 53.44 15.23ZM86.75 15.23C87.22 15.23 87.64 15.15 88 14.98C88.37 14.81 88.69 14.58 88.94 14.28C89.21 13.98 89.41 13.63 89.54 13.24C89.68 12.85 89.75 12.45 89.75 12.01C89.75 11.6 89.66 11.24 89.47 10.93C89.3 10.63 89.05 10.39 88.71 10.22C88.38 10.05 87.98 9.96 87.5 9.96C87.03 9.96 86.61 10.04 86.24 10.21C85.87 10.37 85.55 10.61 85.29 10.92C85.03 11.22 84.84 11.56 84.7 11.95C84.56 12.34 84.5 12.74 84.5 13.17C84.5 13.58 84.58 13.94 84.75 14.26C84.94 14.56 85.19 14.81 85.52 14.98C85.85 15.15 86.26 15.23 86.75 15.23Z" fill="#FFFFFF" fill-opacity="1.000000" fill-rule="evenodd"/>
	<path id="Vector" d="M81.63 25.35C81.3 25.35 81.02 25.29 80.79 25.17C80.57 25.05 80.4 24.9 80.28 24.69C80.16 24.49 80.1 24.27 80.09 24.02L80.09 23.32C80.09 22.96 80.12 22.66 80.19 22.42C80.26 22.18 80.36 21.99 80.49 21.84C80.63 21.69 80.8 21.56 81.01 21.47C81.22 21.38 81.46 21.3 81.74 21.23C82.02 21.16 82.34 21.08 82.7 21C82.73 20.99 82.77 21 82.81 21.02C82.84 21.03 82.87 21.05 82.87 21.09L82.9 21.2C82.9 21.21 82.9 21.22 82.9 21.23C82.9 21.25 82.9 21.27 82.88 21.29C82.87 21.31 82.84 21.33 82.8 21.34C82.46 21.41 82.16 21.48 81.9 21.54C81.64 21.6 81.42 21.66 81.23 21.74C81.05 21.81 80.9 21.91 80.79 22.03C80.68 22.15 80.56 22.29 80.51 22.5C80.5 22.55 80.48 22.6 80.47 22.65C80.43 22.75 80.4 22.86 80.4 23.03C80.4 23.06 80.4 23.09 80.4 23.12C80.44 23.01 80.5 22.91 80.58 22.82C80.71 22.69 80.87 22.58 81.07 22.5Q81.16 22.46 81.25 22.43L81.25 22.43Q81.46 22.37 81.69 22.37C82 22.37 82.26 22.43 82.47 22.55C82.69 22.66 82.85 22.82 82.97 23.03C83.08 23.22 83.14 23.45 83.15 23.7C83.16 23.77 83.16 23.83 83.16 23.88C83.16 23.93 83.16 23.98 83.15 24.02C83.14 24.27 83.08 24.49 82.96 24.69C82.84 24.9 82.67 25.05 82.45 25.17C82.23 25.29 81.96 25.35 81.63 25.35ZM25.95 25.29C25.9 25.29 25.86 25.28 25.84 25.25C25.81 25.23 25.8 25.2 25.8 25.16L25.8 21.34C25.8 21.3 25.81 21.27 25.84 21.24C25.86 21.22 25.9 21.21 25.95 21.21L28.46 21.21C28.51 21.21 28.55 21.22 28.58 21.24C28.61 21.27 28.62 21.3 28.62 21.34L28.62 21.43C28.62 21.47 28.61 21.5 28.58 21.52C28.55 21.55 28.51 21.56 28.46 21.56L26.23 21.56L26.23 25.16C26.23 25.2 26.21 25.23 26.19 25.25C26.16 25.28 26.12 25.29 26.07 25.29L25.95 25.29ZM30.55 25.35C30.33 25.35 30.13 25.31 29.94 25.23C29.76 25.15 29.61 25.05 29.49 24.92C29.38 24.79 29.32 24.64 29.32 24.48C29.32 24.21 29.45 24 29.7 23.84C29.95 23.68 30.28 23.58 30.68 23.53L31.77 23.41L31.77 23.2C31.77 23 31.69 22.83 31.54 22.72C31.39 22.6 31.16 22.54 30.83 22.54C30.59 22.54 30.4 22.58 30.26 22.66C30.11 22.74 30.01 22.84 29.95 22.97C29.93 23.03 29.89 23.06 29.82 23.06L29.71 23.06C29.66 23.06 29.62 23.04 29.6 23.02C29.57 22.99 29.56 22.96 29.56 22.93C29.56 22.87 29.58 22.81 29.63 22.72C29.68 22.64 29.76 22.56 29.86 22.48C29.96 22.4 30.09 22.33 30.25 22.28C30.41 22.23 30.6 22.2 30.83 22.2C31.1 22.2 31.32 22.23 31.5 22.29C31.68 22.35 31.82 22.44 31.91 22.54C32.01 22.63 32.08 22.74 32.12 22.86C32.17 22.98 32.19 23.1 32.19 23.22L32.19 25.16C32.19 25.2 32.17 25.23 32.15 25.25C32.12 25.28 32.08 25.29 32.04 25.29L31.92 25.29C31.87 25.29 31.84 25.28 31.81 25.25C31.78 25.23 31.77 25.2 31.77 25.16L31.77 24.89C31.71 24.96 31.63 25.03 31.53 25.1C31.43 25.16 31.3 25.23 31.14 25.28C30.99 25.32 30.79 25.35 30.55 25.35ZM35.04 25.35C34.72 25.35 34.45 25.29 34.22 25.19C34 25.08 33.83 24.92 33.71 24.72C33.59 24.52 33.53 24.28 33.52 24.01C33.52 23.95 33.51 23.87 33.51 23.77C33.51 23.68 33.52 23.6 33.52 23.54C33.53 23.26 33.59 23.02 33.71 22.82C33.83 22.62 34 22.47 34.22 22.36C34.45 22.25 34.72 22.2 35.04 22.2C35.28 22.2 35.49 22.23 35.67 22.29C35.84 22.34 35.99 22.41 36.11 22.51C36.22 22.6 36.31 22.7 36.37 22.81C36.43 22.91 36.46 23.02 36.46 23.13C36.46 23.13 36.46 23.14 36.46 23.14C36.46 23.17 36.45 23.2 36.42 23.22C36.39 23.24 36.35 23.25 36.31 23.25L36.22 23.25C36.17 23.25 36.14 23.25 36.11 23.23C36.09 23.21 36.07 23.18 36.05 23.13C35.95 22.91 35.82 22.76 35.65 22.67C35.49 22.58 35.28 22.54 35.04 22.54C34.73 22.54 34.47 22.62 34.26 22.78C34.06 22.94 33.95 23.2 33.94 23.57C33.94 23.64 33.93 23.71 33.93 23.77C33.93 23.84 33.94 23.91 33.94 23.98C33.95 24.34 34.06 24.61 34.26 24.77C34.47 24.93 34.73 25.01 35.04 25.01C35.28 25.01 35.49 24.97 35.65 24.88C35.82 24.79 35.95 24.63 36.05 24.41C36.07 24.37 36.09 24.34 36.11 24.32C36.14 24.3 36.17 24.29 36.22 24.29L36.31 24.29C36.35 24.29 36.39 24.3 36.42 24.33C36.45 24.35 36.46 24.37 36.46 24.41C36.46 24.41 36.46 24.41 36.46 24.42C36.46 24.5 36.44 24.59 36.4 24.68C36.36 24.76 36.31 24.84 36.23 24.93C36.16 25.01 36.06 25.08 35.95 25.14C35.84 25.2 35.71 25.25 35.56 25.29C35.4 25.33 35.23 25.35 35.04 25.35ZM41.77 26.4C41.72 26.4 41.69 26.38 41.66 26.36C41.63 26.34 41.62 26.31 41.62 26.27L41.62 22.39C41.62 22.35 41.63 22.32 41.66 22.29C41.69 22.27 41.72 22.26 41.77 22.26L41.89 22.26C41.93 22.26 41.97 22.27 42 22.29C42.02 22.32 42.04 22.35 42.04 22.39L42.04 22.66C42.15 22.53 42.3 22.42 42.49 22.33C42.67 22.24 42.91 22.2 43.19 22.2C43.46 22.2 43.69 22.24 43.87 22.32C44.06 22.4 44.21 22.5 44.32 22.64C44.43 22.77 44.52 22.92 44.57 23.08C44.63 23.24 44.66 23.41 44.66 23.58C44.67 23.64 44.67 23.7 44.67 23.77C44.67 23.84 44.67 23.91 44.66 23.96C44.66 24.14 44.63 24.3 44.57 24.47C44.52 24.63 44.43 24.78 44.32 24.91C44.21 25.04 44.06 25.15 43.87 25.23C43.69 25.31 43.46 25.35 43.19 25.35C42.91 25.35 42.67 25.3 42.49 25.21C42.3 25.12 42.15 25.01 42.04 24.89L42.04 26.27C42.04 26.31 42.02 26.34 42 26.36C41.97 26.38 41.93 26.4 41.89 26.4L41.77 26.4ZM47.38 25.35C47.05 25.35 46.77 25.29 46.55 25.17C46.33 25.05 46.16 24.9 46.04 24.69C45.92 24.49 45.86 24.27 45.85 24.02C45.85 23.96 45.85 23.88 45.85 23.77C45.85 23.67 45.85 23.59 45.85 23.53C45.86 23.28 45.92 23.05 46.04 22.85C46.16 22.65 46.33 22.49 46.55 22.37C46.77 22.26 47.05 22.2 47.38 22.2C47.71 22.2 47.98 22.26 48.2 22.37C48.43 22.49 48.6 22.65 48.71 22.85C48.83 23.05 48.9 23.28 48.91 23.53C48.91 23.59 48.91 23.67 48.91 23.77C48.91 23.88 48.91 23.96 48.91 24.02C48.9 24.27 48.83 24.49 48.71 24.69C48.6 24.9 48.43 25.05 48.2 25.17C47.98 25.29 47.71 25.35 47.38 25.35ZM58.3 26.4C58.26 26.4 58.22 26.38 58.19 26.36C58.16 26.34 58.15 26.31 58.15 26.27L58.15 22.39C58.15 22.35 58.16 22.32 58.19 22.29C58.22 22.27 58.26 22.26 58.3 22.26L58.42 22.26C58.46 22.26 58.5 22.27 58.53 22.29C58.56 22.32 58.57 22.35 58.57 22.39L58.57 22.66C58.68 22.53 58.83 22.42 59.02 22.33C59.2 22.24 59.44 22.2 59.72 22.2C59.99 22.2 60.22 22.24 60.4 22.32C60.59 22.4 60.74 22.5 60.85 22.64C60.97 22.77 61.05 22.92 61.11 23.08C61.16 23.24 61.19 23.41 61.19 23.58C61.2 23.64 61.2 23.7 61.2 23.77C61.2 23.84 61.2 23.91 61.19 23.96C61.19 24.14 61.16 24.3 61.11 24.47C61.05 24.63 60.97 24.78 60.85 24.91C60.74 25.04 60.59 25.15 60.4 25.23C60.22 25.31 59.99 25.35 59.72 25.35C59.44 25.35 59.2 25.3 59.02 25.21C58.83 25.12 58.68 25.01 58.57 24.89L58.57 26.27C58.57 26.31 58.56 26.34 58.53 26.36C58.5 26.38 58.46 26.4 58.42 26.4L58.3 26.4ZM71.03 25.35C70.71 25.35 70.44 25.29 70.21 25.19C69.99 25.08 69.82 24.92 69.7 24.72C69.58 24.52 69.52 24.28 69.51 24.01C69.51 23.95 69.5 23.87 69.5 23.77C69.5 23.68 69.51 23.6 69.51 23.54C69.52 23.26 69.58 23.02 69.7 22.82C69.82 22.62 69.99 22.47 70.21 22.36C70.44 22.25 70.71 22.2 71.03 22.2C71.27 22.2 71.48 22.23 71.66 22.29C71.83 22.34 71.98 22.41 72.1 22.51C72.21 22.6 72.3 22.7 72.36 22.81C72.42 22.91 72.45 23.02 72.45 23.13C72.45 23.13 72.45 23.14 72.45 23.14C72.45 23.17 72.44 23.2 72.41 23.22C72.38 23.24 72.34 23.25 72.3 23.25L72.21 23.25C72.16 23.25 72.13 23.25 72.1 23.23C72.08 23.21 72.06 23.18 72.04 23.13C71.94 22.91 71.81 22.76 71.64 22.67C71.48 22.58 71.27 22.54 71.03 22.54C70.72 22.54 70.46 22.62 70.25 22.78C70.05 22.94 69.94 23.2 69.93 23.57C69.93 23.64 69.92 23.71 69.92 23.77C69.92 23.84 69.93 23.91 69.93 23.98C69.94 24.34 70.05 24.61 70.25 24.77C70.46 24.93 70.72 25.01 71.03 25.01C71.27 25.01 71.48 24.97 71.64 24.88C71.81 24.79 71.94 24.63 72.04 24.41C72.06 24.37 72.08 24.34 72.1 24.32C72.13 24.3 72.16 24.29 72.21 24.29L72.3 24.29C72.34 24.29 72.38 24.3 72.41 24.33C72.44 24.35 72.45 24.37 72.45 24.41C72.45 24.41 72.45 24.41 72.45 24.42C72.45 24.5 72.43 24.59 72.39 24.68C72.35 24.76 72.3 24.84 72.22 24.93C72.15 25.01 72.05 25.08 71.94 25.14C71.83 25.2 71.7 25.25 71.55 25.29C71.39 25.33 71.22 25.35 71.03 25.35ZM77.32 25.35C76.99 25.35 76.71 25.29 76.49 25.17C76.27 25.05 76.1 24.9 75.98 24.69C75.86 24.49 75.8 24.27 75.79 24.02C75.79 23.96 75.79 23.88 75.79 23.77C75.79 23.67 75.79 23.59 75.79 23.53C75.8 23.28 75.86 23.05 75.98 22.85C76.1 22.65 76.27 22.49 76.49 22.37Q76.82 22.2 77.32 22.2C77.65 22.2 77.92 22.26 78.14 22.37C78.37 22.49 78.54 22.65 78.65 22.85C78.77 23.05 78.84 23.28 78.84 23.53C78.85 23.59 78.85 23.67 78.85 23.77C78.85 23.88 78.85 23.96 78.84 24.02C78.84 24.27 78.77 24.49 78.65 24.69C78.54 24.9 78.37 25.05 78.14 25.17C77.92 25.29 77.65 25.35 77.32 25.35ZM93.93 25.35C93.48 25.35 93.13 25.22 92.87 24.98Q92.76 24.87 92.67 24.75Q92.46 24.43 92.42 24.01C92.42 23.95 92.42 23.87 92.42 23.77C92.42 23.68 92.42 23.6 92.42 23.54C92.45 23.28 92.52 23.04 92.64 22.84C92.77 22.64 92.94 22.48 93.15 22.37C93.37 22.26 93.63 22.2 93.93 22.2C94.25 22.2 94.52 22.26 94.75 22.38C94.97 22.5 95.14 22.67 95.26 22.9C95.39 23.12 95.45 23.39 95.45 23.7L95.45 23.79C95.45 23.83 95.43 23.86 95.4 23.88C95.37 23.91 95.34 23.92 95.29 23.92L92.84 23.92L92.84 23.98C92.85 24.15 92.9 24.32 92.99 24.48C93.07 24.63 93.2 24.76 93.36 24.86C93.52 24.96 93.71 25.01 93.93 25.01C94.13 25.01 94.29 24.98 94.42 24.93C94.55 24.88 94.65 24.83 94.73 24.77C94.81 24.71 94.86 24.66 94.88 24.63C94.92 24.58 94.96 24.55 94.98 24.54C95 24.53 95.04 24.52 95.09 24.52L95.2 24.52C95.24 24.52 95.28 24.54 95.3 24.56C95.33 24.58 95.35 24.6 95.35 24.63C95.35 24.63 95.34 24.64 95.34 24.64C95.34 24.7 95.3 24.76 95.23 24.84C95.17 24.92 95.08 25 94.95 25.08C94.83 25.16 94.69 25.22 94.51 25.27C94.34 25.32 94.14 25.35 93.93 25.35ZM107.11 25.35C106.66 25.35 106.31 25.22 106.05 24.98C105.79 24.73 105.64 24.41 105.6 24.01C105.6 23.95 105.59 23.87 105.59 23.77C105.59 23.68 105.6 23.6 105.6 23.54C105.62 23.28 105.7 23.04 105.82 22.84C105.95 22.64 106.12 22.48 106.33 22.37C106.55 22.26 106.81 22.2 107.11 22.2C107.43 22.2 107.7 22.26 107.92 22.38C108.15 22.5 108.32 22.67 108.44 22.9C108.56 23.12 108.63 23.39 108.63 23.7L108.63 23.79C108.63 23.83 108.61 23.86 108.58 23.88C108.55 23.91 108.51 23.92 108.47 23.92L106.02 23.92L106.02 23.98C106.03 24.15 106.08 24.32 106.17 24.48C106.25 24.63 106.38 24.76 106.54 24.86C106.7 24.96 106.89 25.01 107.11 25.01C107.3 25.01 107.47 24.98 107.59 24.93C107.73 24.88 107.83 24.83 107.91 24.77C107.99 24.71 108.04 24.66 108.06 24.63C108.1 24.58 108.14 24.55 108.16 24.54C108.18 24.53 108.22 24.52 108.27 24.52L108.38 24.52C108.42 24.52 108.45 24.54 108.48 24.56C108.51 24.58 108.52 24.6 108.52 24.63C108.52 24.63 108.52 24.64 108.52 24.64C108.52 24.7 108.48 24.76 108.41 24.84C108.35 24.92 108.25 25 108.13 25.08C108.01 25.16 107.87 25.22 107.69 25.27C107.52 25.32 107.32 25.35 107.11 25.35ZM38.88 25.29C38.83 25.29 38.79 25.28 38.77 25.25C38.74 25.23 38.72 25.2 38.72 25.16L38.72 22.6L37.47 22.6C37.42 22.6 37.38 22.58 37.36 22.56C37.33 22.54 37.32 22.51 37.32 22.47L37.32 22.39C37.32 22.35 37.33 22.32 37.36 22.29C37.38 22.27 37.42 22.26 37.47 22.26L40.4 22.26C40.45 22.26 40.48 22.27 40.51 22.29C40.54 22.32 40.55 22.35 40.55 22.39L40.55 22.47C40.55 22.51 40.54 22.54 40.51 22.56C40.48 22.58 40.45 22.6 40.4 22.6L39.14 22.6L39.14 25.16C39.14 25.2 39.13 25.23 39.1 25.25C39.08 25.28 39.04 25.29 38.99 25.29L38.88 25.29ZM51.36 25.29C51.31 25.29 51.27 25.28 51.25 25.25C51.22 25.23 51.2 25.2 51.2 25.16L51.2 22.6L49.95 22.6C49.9 22.6 49.86 22.58 49.84 22.56C49.81 22.54 49.8 22.51 49.8 22.47L49.8 22.39C49.8 22.35 49.81 22.32 49.84 22.29C49.86 22.27 49.9 22.26 49.95 22.26L52.88 22.26C52.93 22.26 52.96 22.27 52.99 22.29C53.02 22.32 53.03 22.35 53.03 22.39L53.03 22.47C53.03 22.51 53.02 22.54 52.99 22.56C52.96 22.58 52.93 22.6 52.88 22.6L51.62 22.6L51.62 25.16C51.62 25.2 51.61 25.23 51.58 25.25C51.55 25.28 51.52 25.29 51.47 25.29L51.36 25.29ZM55.15 25.12L53.82 22.49C53.79 22.43 53.78 22.39 53.78 22.37C53.78 22.34 53.79 22.32 53.82 22.29C53.84 22.27 53.88 22.26 53.91 22.26L54.04 22.26C54.09 22.26 54.12 22.27 54.15 22.29C54.17 22.3 54.19 22.32 54.2 22.34L55.37 24.67L55.15 25.12ZM54.17 26.4C54.13 26.4 54.09 26.38 54.06 26.36C54.04 26.34 54.02 26.31 54.02 26.27L54.02 26.19C54.02 26.15 54.04 26.12 54.06 26.09C54.09 26.07 54.13 26.06 54.17 26.06L54.33 26.06C54.44 26.06 54.53 26.04 54.6 26C54.67 25.96 54.73 25.89 54.79 25.8C54.85 25.71 54.92 25.58 55 25.42L55.15 25.12L56.54 22.34C56.55 22.32 56.57 22.3 56.59 22.28C56.62 22.26 56.65 22.26 56.7 22.26L56.82 22.26C56.86 22.26 56.89 22.27 56.92 22.29C56.94 22.32 56.96 22.34 56.96 22.37C56.96 22.39 56.95 22.41 56.94 22.42C56.94 22.44 56.93 22.46 56.92 22.49L55.61 25.09C55.55 25.21 55.48 25.34 55.41 25.49C55.34 25.64 55.26 25.79 55.16 25.92C55.07 26.06 54.96 26.18 54.84 26.26C54.72 26.35 54.57 26.4 54.41 26.4L54.17 26.4ZM62.7 25.29C62.65 25.29 62.62 25.28 62.59 25.25C62.56 25.23 62.55 25.2 62.55 25.16L62.55 22.39C62.55 22.35 62.56 22.32 62.59 22.29C62.62 22.27 62.65 22.26 62.7 22.26L62.82 22.26C62.86 22.26 62.9 22.27 62.93 22.29C62.95 22.32 62.97 22.35 62.97 22.39L62.97 23.27L63.72 23.27C64.19 23.27 64.52 23.36 64.72 23.55C64.92 23.74 65.02 23.99 65.02 24.3C65.02 24.64 64.91 24.9 64.68 25.05C64.45 25.21 64.1 25.29 63.62 25.29L62.7 25.29ZM65.7 25.29C65.65 25.29 65.61 25.28 65.59 25.25C65.56 25.23 65.55 25.2 65.55 25.16L65.55 22.39C65.55 22.35 65.56 22.32 65.59 22.29C65.61 22.27 65.65 22.26 65.7 22.26L65.81 22.26C65.86 22.26 65.9 22.27 65.92 22.29C65.95 22.32 65.96 22.35 65.96 22.39L65.96 25.16C65.96 25.2 65.95 25.23 65.92 25.25C65.9 25.28 65.86 25.29 65.81 25.29L65.7 25.29ZM85.59 25.09L84.24 22.49C84.21 22.43 84.2 22.39 84.2 22.37C84.2 22.34 84.21 22.32 84.24 22.29C84.27 22.27 84.3 22.26 84.34 22.26L84.47 22.26C84.51 22.26 84.55 22.27 84.57 22.29C84.59 22.3 84.61 22.32 84.62 22.34L85.79 24.67L86.96 22.34C86.98 22.32 86.99 22.3 87.02 22.28C87.04 22.26 87.07 22.26 87.12 22.26L87.24 22.26C87.28 22.26 87.31 22.27 87.34 22.29C87.37 22.32 87.38 22.34 87.38 22.37C87.38 22.39 87.38 22.41 87.37 22.42C87.36 22.44 87.35 22.46 87.34 22.49L86.03 25.09C85.97 25.21 85.91 25.34 85.83 25.49C85.76 25.64 85.68 25.79 85.59 25.92C85.5 26.06 85.39 26.18 85.26 26.26C85.14 26.35 85 26.4 84.83 26.4L84.6 26.4C84.55 26.4 84.51 26.38 84.49 26.36C84.46 26.34 84.45 26.31 84.45 26.27L84.45 26.19C84.45 26.15 84.46 26.12 84.49 26.09C84.51 26.07 84.55 26.06 84.6 26.06L84.76 26.06C84.87 26.06 84.95 26.04 85.02 26C85.09 25.96 85.15 25.89 85.21 25.8C85.27 25.71 85.34 25.58 85.42 25.42L85.59 25.09ZM90.81 25.29C90.76 25.29 90.72 25.28 90.7 25.25C90.67 25.23 90.65 25.2 90.65 25.16L90.65 23.97C90.53 24.08 90.37 24.16 90.19 24.21C90 24.26 89.79 24.28 89.55 24.28C89.17 24.28 88.86 24.21 88.64 24.08C88.43 23.94 88.32 23.72 88.32 23.41L88.32 22.39C88.32 22.35 88.33 22.32 88.36 22.29C88.39 22.27 88.42 22.26 88.47 22.26L88.59 22.26C88.63 22.26 88.67 22.27 88.7 22.29C88.72 22.32 88.74 22.35 88.74 22.39L88.74 23.38C88.74 23.57 88.81 23.71 88.94 23.81C89.08 23.9 89.3 23.94 89.58 23.94C89.91 23.94 90.17 23.91 90.36 23.84C90.56 23.78 90.65 23.65 90.65 23.48L90.65 22.39C90.65 22.35 90.67 22.32 90.7 22.29C90.72 22.27 90.76 22.26 90.81 22.26L90.92 22.26C90.97 22.26 91 22.27 91.03 22.29C91.06 22.32 91.07 22.35 91.07 22.39L91.07 25.16C91.07 25.2 91.06 25.23 91.03 25.25C91 25.28 90.97 25.29 90.92 25.29L90.81 25.29ZM96.92 25.29C96.87 25.29 96.84 25.28 96.81 25.25C96.78 25.23 96.77 25.2 96.77 25.16L96.77 22.39C96.77 22.35 96.78 22.32 96.81 22.29C96.84 22.27 96.87 22.26 96.92 22.26L97.03 22.26C97.08 22.26 97.12 22.27 97.14 22.29C97.17 22.32 97.19 22.35 97.19 22.39L97.19 23.57L99.33 23.57L99.33 22.39C99.33 22.35 99.34 22.32 99.37 22.29C99.4 22.27 99.44 22.26 99.48 22.26L99.6 22.26C99.64 22.26 99.68 22.27 99.71 22.29C99.74 22.32 99.75 22.35 99.75 22.39L99.75 25.16C99.75 25.2 99.74 25.23 99.71 25.25C99.68 25.28 99.64 25.29 99.6 25.29L99.48 25.29C99.44 25.29 99.4 25.28 99.37 25.25C99.34 25.23 99.33 25.2 99.33 25.16L99.33 23.91L97.19 23.91L97.19 25.16C97.19 25.2 97.17 25.23 97.14 25.25C97.12 25.28 97.08 25.29 97.03 25.29L96.92 25.29ZM101.41 25.29C101.38 25.29 101.34 25.28 101.32 25.25C101.29 25.23 101.27 25.2 101.27 25.17L101.27 22.39C101.27 22.35 101.29 22.32 101.32 22.29C101.34 22.27 101.38 22.26 101.43 22.26L101.54 22.26C101.59 22.26 101.62 22.27 101.65 22.29C101.68 22.32 101.69 22.35 101.69 22.39L101.69 24.83L103.81 22.34C103.83 22.32 103.86 22.3 103.88 22.29C103.91 22.27 103.94 22.26 103.99 22.26L104.12 22.26C104.16 22.26 104.19 22.27 104.22 22.29C104.24 22.31 104.26 22.34 104.26 22.37L104.26 25.16C104.26 25.2 104.24 25.23 104.22 25.25C104.19 25.28 104.15 25.29 104.11 25.29L103.99 25.29C103.94 25.29 103.91 25.28 103.88 25.25C103.85 25.23 103.84 25.2 103.84 25.16L103.91 22.77L101.72 25.2C101.7 25.22 101.68 25.24 101.65 25.26C101.62 25.28 101.59 25.29 101.54 25.29L101.41 25.29ZM110.1 25.29C110.05 25.29 110.01 25.28 109.99 25.25C109.96 25.23 109.95 25.2 109.95 25.16L109.95 22.37C109.95 22.34 109.96 22.31 109.99 22.29C110.02 22.27 110.05 22.26 110.08 22.26L110.24 22.26C110.31 22.26 110.36 22.29 110.4 22.34L111.67 24.38L112.94 22.34C112.98 22.29 113.03 22.26 113.1 22.26L113.26 22.26C113.29 22.26 113.33 22.27 113.35 22.29C113.38 22.31 113.4 22.34 113.4 22.37L113.4 25.16C113.4 25.2 113.38 25.23 113.35 25.25C113.33 25.28 113.29 25.29 113.24 25.29L113.13 25.29C113.08 25.29 113.05 25.28 113.02 25.25C112.99 25.23 112.98 25.2 112.98 25.16L113.05 22.86L111.97 24.63C111.95 24.67 111.92 24.71 111.89 24.74C111.86 24.78 111.81 24.79 111.74 24.79L111.6 24.79C111.53 24.79 111.48 24.78 111.45 24.74C111.42 24.71 111.39 24.67 111.37 24.63L110.3 22.93L110.36 25.16C110.36 25.2 110.35 25.23 110.32 25.25C110.3 25.28 110.26 25.29 110.21 25.29L110.1 25.29ZM43.15 25.01C43.42 25.01 43.64 24.96 43.79 24.86C43.95 24.76 44.06 24.62 44.13 24.46C44.2 24.3 44.24 24.12 44.24 23.94C44.25 23.88 44.25 23.83 44.25 23.77C44.25 23.72 44.25 23.66 44.24 23.61C44.24 23.42 44.2 23.25 44.13 23.08C44.06 22.92 43.95 22.79 43.79 22.69C43.64 22.59 43.42 22.54 43.15 22.54C42.89 22.54 42.68 22.59 42.52 22.69C42.36 22.8 42.24 22.93 42.16 23.09C42.09 23.25 42.05 23.4 42.04 23.56C42.03 23.62 42.03 23.7 42.03 23.79C42.03 23.88 42.03 23.96 42.04 24.02C42.04 24.17 42.08 24.33 42.16 24.48C42.24 24.63 42.37 24.76 42.53 24.86C42.69 24.96 42.9 25.01 43.15 25.01ZM47.38 25.01C47.7 25.01 47.96 24.92 48.16 24.75C48.36 24.57 48.47 24.32 48.49 23.99C48.49 23.93 48.49 23.86 48.49 23.77C48.49 23.69 48.49 23.62 48.49 23.56C48.47 23.22 48.36 22.97 48.16 22.8C47.96 22.62 47.7 22.54 47.38 22.54C47.06 22.54 46.8 22.62 46.6 22.8C46.39 22.97 46.29 23.22 46.27 23.56C46.27 23.62 46.27 23.69 46.27 23.77C46.27 23.86 46.27 23.93 46.27 23.99C46.29 24.32 46.39 24.57 46.6 24.75C46.8 24.92 47.06 25.01 47.38 25.01ZM59.68 25.01C59.95 25.01 60.17 24.96 60.32 24.86C60.48 24.76 60.59 24.62 60.66 24.46C60.73 24.3 60.77 24.12 60.78 23.94C60.78 23.88 60.78 23.83 60.78 23.77C60.78 23.72 60.78 23.66 60.78 23.61C60.77 23.42 60.73 23.25 60.66 23.08C60.59 22.92 60.48 22.79 60.32 22.69C60.17 22.59 59.95 22.54 59.68 22.54C59.42 22.54 59.21 22.59 59.05 22.69C58.89 22.8 58.77 22.93 58.69 23.09C58.62 23.25 58.58 23.4 58.57 23.56C58.56 23.62 58.56 23.7 58.56 23.79C58.56 23.88 58.56 23.96 58.57 24.02C58.57 24.17 58.62 24.33 58.69 24.48C58.78 24.63 58.9 24.76 59.06 24.86C59.22 24.96 59.43 25.01 59.68 25.01ZM77.32 25.01C77.64 25.01 77.9 24.92 78.1 24.75C78.3 24.57 78.41 24.32 78.43 23.99C78.43 23.93 78.43 23.86 78.43 23.77C78.43 23.69 78.43 23.62 78.43 23.56C78.41 23.22 78.3 22.97 78.1 22.8C77.9 22.62 77.64 22.54 77.32 22.54C77 22.54 76.74 22.62 76.54 22.8C76.33 22.97 76.23 23.22 76.21 23.56C76.21 23.62 76.21 23.69 76.21 23.77C76.21 23.86 76.21 23.93 76.21 23.99C76.23 24.32 76.33 24.57 76.54 24.75C76.74 24.92 77 25.01 77.32 25.01ZM92.84 23.59L95.03 23.59L95.03 23.57C95.03 23.37 94.98 23.2 94.9 23.04C94.81 22.89 94.68 22.77 94.52 22.68C94.35 22.58 94.16 22.54 93.93 22.54C93.7 22.54 93.5 22.58 93.34 22.68C93.18 22.77 93.05 22.89 92.97 23.04C92.88 23.2 92.84 23.37 92.84 23.57L92.84 23.59ZM106.02 23.59L108.21 23.59L108.21 23.57C108.21 23.37 108.16 23.2 108.08 23.04C107.99 22.89 107.86 22.77 107.7 22.68C107.53 22.58 107.34 22.54 107.11 22.54C106.88 22.54 106.68 22.58 106.52 22.68C106.36 22.77 106.23 22.89 106.14 23.04C106.06 23.2 106.02 23.37 106.02 23.57L106.02 23.59ZM81.63 25.01C81.95 25.01 82.21 24.92 82.41 24.75C82.61 24.57 82.72 24.32 82.73 23.99C82.74 23.95 82.74 23.92 82.74 23.88C82.74 23.84 82.74 23.79 82.73 23.73C82.72 23.4 82.61 23.14 82.42 22.97C82.22 22.8 81.98 22.71 81.69 22.71C81.37 22.71 81.1 22.8 80.88 22.97C80.65 23.14 80.53 23.4 80.52 23.73C80.51 23.79 80.51 23.84 80.51 23.88C80.51 23.92 80.51 23.95 80.52 23.99C80.53 24.32 80.64 24.57 80.84 24.75C81.04 24.92 81.3 25.01 81.63 25.01ZM62.97 24.95L63.68 24.95C64 24.95 64.24 24.9 64.38 24.81C64.53 24.71 64.6 24.54 64.6 24.3C64.6 24.07 64.53 23.9 64.39 23.78C64.25 23.67 64.01 23.61 63.68 23.61L62.97 23.61L62.97 24.95ZM30.62 25.01C30.83 25.01 31.02 24.97 31.2 24.89C31.37 24.81 31.51 24.7 31.61 24.54C31.71 24.37 31.77 24.17 31.77 23.92L31.77 23.73L30.88 23.83C30.5 23.87 30.22 23.95 30.03 24.05C29.84 24.16 29.74 24.29 29.74 24.45C29.74 24.58 29.78 24.68 29.87 24.76C29.96 24.84 30.07 24.91 30.2 24.95C30.34 24.99 30.48 25.01 30.62 25.01Z" fill="#FFFFFF" fill-opacity="1.000000" fill-rule="evenodd"/>
</svg>
